<svg xmlns="http://www.w3.org/2000/svg" xmlns:xlink="http://www.w3.org/1999/xlink" id="Layer_1" x="0" y="0" version="1.1" viewBox="0 0 95.3 70.8" style="enable-background:new 0 0 95.3 70.8" xml:space="preserve"><style type="text/css">.st0{fill:#fffbfb}.st1{fill:#010101;fill-opacity:0;stroke:#7c7b7b;stroke-width:2;stroke-linecap:round;stroke-linejoin:round}.st2{fill:#6780bf}.st3{fill:#010101;fill-opacity:0;stroke:#7c7b7b;stroke-width:3;stroke-linecap:round;stroke-linejoin:round}</style><g><g><g><path d="M47.6,2.7c12.8,0.9,25.6,3,37.9,6.9c0.8,1.9,1.1,4,1.5,6c0,0,1.8,11.7-0.5,19c-1.8,9.6-8.2,17.6-18.5,25.3 c-6,4.8-13,7-20.3,8.1C40.3,67,33.3,64.8,27.3,60C17,52.2,10.5,44.3,8.8,34.7c-2.4-7.3-0.5-19-0.5-19c0.4-2,0.7-4.1,1.5-6 C22,5.7,34.8,3.6,47.6,2.7" class="st0"/><path d="M47.6,2.7c12.8,0.9,25.6,3,37.9,6.9c0.8,1.9,1.1,4,1.5,6c0,0,1.8,11.7-0.5,19c-1.8,9.6-8.2,17.6-18.5,25.3 c-6,4.8-13,7-20.3,8.1C40.3,67,33.3,64.8,27.3,60C17,52.2,10.5,44.3,8.8,34.7c-2.4-7.3-0.5-19-0.5-19c0.4-2,0.7-4.1,1.5-6 C22,5.7,34.8,3.6,47.6,2.7" class="st1"/></g><g><path d="M48.3,15.6c-10.6,0-20.2-1.8-30.5-4.8c2.4-0.6,4.9-1.4,7.3-1.8c13.2-2.2,12-1.9,22.5-2.2 c10.5,0.3,9.4,0,22.6,2.2c2.5,0.4,4.9,1.2,7.4,1.8c-10.3,3-20,4.8-30.7,4.8" class="st2"/><path d="M48.3,15.6c-10.6,0-20.2-1.8-30.5-4.8c2.4-0.6,4.9-1.4,7.3-1.8c13.2-2.2,12-1.9,22.5-2.2 c10.5,0.3,9.4,0,22.6,2.2c2.5,0.4,4.9,1.2,7.4,1.8c-10.3,3-20,4.8-30.7,4.8" class="st1"/></g><g><path d="M39.5,62.3C34,52.7,27,44.4,15.3,42.7" class="st1"/><path d="M55.7,62.3c5.5-9.7,12.5-18,24.2-19.6" class="st1"/></g><g><g><path d="M38.2,60.3c-10.2,0-15.8-10.5-19.7-16.9C18.5,43.4,29.8,45.3,38.2,60.3z" class="st2"/><path d="M38.2,60.3c-10.2,0-15.8-10.5-19.7-16.9C18.5,43.4,29.8,45.3,38.2,60.3z" class="st1"/></g><g><path d="M57,60.3c10.2,0,15.8-10.5,19.7-16.9C76.7,43.4,65.4,45.3,57,60.3z" class="st2"/><path d="M57,60.3c10.2,0,15.8-10.5,19.7-16.9C76.7,43.4,65.4,45.3,57,60.3z" class="st1"/></g></g><g><g><path d="M18.3,21.4c-5.2-0.5-10.7-3.6-12.7-5.1c-3.1,2.1-3,12.1-1,15.4c0.7,1,8.3,4.7,11.8,4.2c-0.3,2.7-0.4,4,0,4 c0.3,0.1,21.4-7.8,21.5-9.6C38,28.5,20.8,14.1,20,14.1C19.3,14.2,18.5,18.4,18.3,21.4z" class="st2"/><path d="M18.3,21.4c-5.2-0.5-10.7-3.6-12.7-5.1c-3.1,2.1-3,12.1-1,15.4c0.7,1,8.3,4.7,11.8,4.2c-0.3,2.7-0.4,4,0,4 c0.3,0.1,21.4-7.8,21.5-9.6C38,28.5,20.8,14.1,20,14.1C19.3,14.2,18.5,18.4,18.3,21.4z" class="st1"/></g><g><path d="M76.9,21.4c5.2-0.5,10.7-3.6,12.7-5.1c3.1,2.1,3,12.1,1,15.4c-0.7,1-8.3,4.7-11.8,4.2c0.3,2.7,0.4,4,0,4 c-0.3,0.1-21.4-7.8-21.5-9.6c-0.1-1.8,17.1-16.2,17.8-16.2C75.8,14.2,76.7,18.4,76.9,21.4z" class="st2"/><path d="M76.9,21.4c5.2-0.5,10.7-3.6,12.7-5.1c3.1,2.1,3,12.1,1,15.4c-0.7,1-8.3,4.7-11.8,4.2c0.3,2.7,0.4,4,0,4 c-0.3,0.1-21.4-7.8-21.5-9.6c-0.1-1.8,17.1-16.2,17.8-16.2C75.8,14.2,76.7,18.4,76.9,21.4z" class="st1"/></g></g></g><g><path d="M48.9,69.2c12.1-1.8,34.6-14.8,39.5-34" class="st3"/><path d="M88.5,35.1c3.7,2.2,9.9-19,0.1-19.5" class="st3"/><path d="M88,14.5c0.6,2.2-0.5-2.5-1.6-5.4" class="st3"/><path d="M85.2,7.9C72.4,1.2,32.6-2.7,9.8,8.7" class="st3"/><path d="M9.3,9.2c0.2-0.5-0.9,3-1.8,5.9" class="st3"/><path d="M7.3,15.2c-8.7,2.5-6.9,16,0.3,19.9" class="st3"/><path d="M38.2,66.5C24.6,60.4,11.5,50.1,7.9,34.9" class="st3"/><path id="Shape" d="M85.7,8.2c0.1,0,0.2,0.1,0.3,0.1" class="st3"/><path d="M49.5,69.3c-4-0.4-7.9-1.3-11.5-2.9" class="st3"/></g></g></svg>