<svg xmlns="http://www.w3.org/2000/svg" xmlns:xlink="http://www.w3.org/1999/xlink" id="Layer_1" x="0" y="0" version="1.1" viewBox="0 0 500 500" style="enable-background:new 0 0 500 500" xml:space="preserve"><style type="text/css">.st0{fill:#edefff}.st1{opacity:5.000000e-02;fill:#041521;enable-background:new}.st2{fill:#aec5f2}.st3{opacity:.7;fill:none;stroke:#fff;stroke-miterlimit:10;enable-background:new}.st4{fill:#fcfcfc}.st5{clip-path:url(#SVGID_2_)}.st6{fill:#fff}.st7{fill:#414f63}.st8{fill:none;stroke:#414f63;stroke-width:4;stroke-miterlimit:10}.st9{fill:#7267e1}.st10{fill:#c1bee8}.st11{fill:url(#SVGID_3_)}.st12{fill:url(#SVGID_4_)}.st13{fill:#edbda8}.st14{fill:url(#SVGID_5_)}.st15{fill:#0b3c5f}.st16{fill:url(#SVGID_6_)}.st17{fill:url(#SVGID_7_)}.st18{fill:url(#SVGID_8_)}.st19{fill:#5e55ba}.st20{fill:url(#SVGID_9_)}.st21{fill:url(#SVGID_10_)}.st22{fill:#004b5c}.st23{fill:#d9ad9a}.st24{fill:url(#SVGID_11_)}.st25{fill:url(#SVGID_12_)}.st26{fill:#6b61d4}.st27{fill:url(#SVGID_13_)}.st28{fill:#133852}.st29{fill:#1b5075}.st30{fill:#2b81bd}.st31{fill-rule:evenodd;clip-rule:evenodd;fill:#fff}.st32{fill:#007287}.st33{opacity:.74;fill:#041521;enable-background:new}.st34{fill:url(#SVGID_14_)}.st35{fill:#bbc4ff}.st36{fill:#bdd5ff}.st37{fill:#8b96e3}.st38,.st39{fill:none;stroke:#7267e1;stroke-width:3;stroke-linecap:square;stroke-miterlimit:10}.st39{stroke:#bbc4ff;stroke-width:2}</style><g><g id="OBJECTS"><path d="M265.2,443.3c15.6-5.1,31.1-10.3,46.2-16.5c16-6.5,31.8-14.1,45.4-24.6c29.5-22.8,47.1-59.1,48.1-95.8 c0.7-26.1-6.4-52.4-1.8-78.1c3-16.6,10.7-32,14-48.5s1.1-35.8-12.2-46.5c-18.3-14.8-46-6.1-69-11.8 c-43.4-10.7-60.2-68.5-103.5-79.5c-21-5.4-44.1,2.4-59.9,17s-24.8,35-28.8,55.7c-3.5,18.6-3.7,38.9-15.2,54.1 c-10.6,14-29,21.1-38.9,35.6c-12.6,18.5-7.8,43.2-0.5,64.4c7.2,21.1,16.5,43.2,11.2,64.8c-5.2,21.1-24,38.8-23.3,60.5 c0.5,15.3,11.2,28.9,24.5,37.1s28.9,11.9,44.3,14.8c23.3,4.5,46.8,1.4,70.6,2C236.4,448.6,252.2,447.6,265.2,443.3z" class="st0"/><ellipse cx="229.1" cy="451.6" class="st1" rx="146.9" ry="13.6"/><path d="M170,425.1c-31.2-6.9-78.4-22.4-66.8-39.3c7.3-10.6-1.6-13.7-12-19.9s-18.1-17.8-11.8-24.5 c5.3-5.7,3.8-10.5,0.2-18.6c-5.5-12.5-10.4-30-4.8-32.1c7.8-2.9,14.6,8.3,22.5,14.7s14.6-3.9,21.3-0.9c8,3.6,15.2,36.6,21.9,36.5 s10.2-9.1,17.7-5.9C168,339.1,172.7,395.3,170,425.1z" class="st2"/><path d="M196.7,430.6C136.8,400.5,85.8,308.3,85.8,308.3 M92.7,344c0,0,8.4,3,19.9,5.8 M115.5,311 c0,0-3.4,23.3,1.3,44.6 M114.3,389.4c10.7,1.9,21.6,2.5,32.5,2 M150.7,355.6c0,0-4.6,25.6,3,42.9" class="st3"/><path d="M338.4,429c31.4,6.1,74.3-39.9,58.5-53c-9.9-8.2-2.9-15.9,5.4-24.8s12.4-21.7,4.5-26.5c-6.7-4-8-10.2-6.9-19 c1.8-13.5,0.3-22.4-5.5-23.9c-6.9-1.7-13.2,3.7-19,12s-15.1,0.2-20.7,5c-6.7,5.7-5.4,33.3-11.8,35s-11.5,0.2-17.9,5.3 C316.6,345.8,327.5,401.1,338.4,429z" class="st2"/><path d="M390.5,293.4c0,0-11.9,73.1-67,144.1 M378.3,337.3c1.2-19.1-6-29.1-6-29.1 M404.1,335 c-20.1,3-31.8,18-31.8,18 M356.7,386.1c3.6-28.2-13.9-52.2-13.9-52.2 M390.6,384.9c-25.9,0-39.5,11.5-39.5,11.5" class="st3"/><image style="overflow:visible;opacity:.5;enable-background:new" width="446" height="806" transform="matrix(0.48 0 0 0.48 147.16 71.16)" xlink:href="F7AF3528947FBD6.png"/><path d="M181.2,86.3h145.6c10.4,0,18.9,8.5,18.9,18.9v318.3c0,10.4-8.5,18.9-18.9,18.9H181.2 c-10.4,0-18.9-8.5-18.9-18.9V105.2C162.3,94.8,170.8,86.3,181.2,86.3z" class="st4"/><g><defs><path id="SVGID_1_" d="M175.9,83.4h156.3c8.6,0,15.5,7,15.5,15.5v330.8c0,8.6-7,15.5-15.5,15.5H175.9c-8.6,0-15.6-7-15.6-15.5 V99C160.3,90.4,167.3,83.4,175.9,83.4z"/></defs><clipPath id="SVGID_2_"><use xlink:href="#SVGID_1_" style="overflow:visible"/></clipPath><g class="st5"><rect width="224.8" height="392.7" x="142.8" y="68" class="st6"/><image style="overflow:visible;opacity:.1;enable-background:new" width="173" height="71" transform="matrix(0.48 0 0 0.48 212.68 76.2)" xlink:href="F7AF3528947FBDA.png"/><path d="M274.2,99h-40.4c-4.2,0-8-2.8-9.2-6.8l-2.6-8.7h64l-2.6,8.7C282.1,96.2,278.4,99,274.2,99z" class="st7"/></g></g><path d="M175.9,83.4h156.3c8.6,0,15.5,7,15.5,15.5v330.8c0,8.6-7,15.5-15.5,15.5H175.9c-8.6,0-15.6-7-15.6-15.5V99 C160.3,90.4,167.3,83.4,175.9,83.4z" class="st8"/><path d="M138.8,454.1c0.1,1-1,1.8-3.4,2.3c-3.5,0.7-16-2.4-18.3-4c-1.3-0.7-2-2.1-1.6-3.6c0.1-0.6,0.2-1.2,0.3-1.8 l0,0c0.3-1.2,0.7-2.8,1.3-4.8l1.9-2l7.6,1.7l3.5,0.8c0,1.6,0.5,3.1,1.6,4.3c0.2,0.3,0.5,0.6,0.8,0.9c0,0,0.1,0.1,0.1,0.1 c0.8,0.8,1.7,1.5,2.6,2.2c1,0.7,1.9,1.4,2.8,2.3C138.4,452.9,138.7,453.5,138.8,454.1z" class="st9"/><path d="M138.8,454.1c0.1,1-1,1.8-3.4,2.3c-3.5,0.7-16-2.4-18.3-4c-1.3-0.7-2-2.1-1.6-3.6c0.5,1.5,1.5,2.6,5.5,3.9 c4.8,1.6,12.9,3.8,16.6,2.2C138.1,454.8,138.5,454.5,138.8,454.1z" class="st10"/><path d="M135.2,450.1c-0.1,0.4-0.4,0.8-0.8,1c-1.5,0.5-5.2-0.8-7.2-5.9l-0.4-3.3l3.5,0.8c0,1.6,0.5,3.1,1.6,4.3 C132.7,448.2,133.9,449.2,135.2,450.1z" class="st10"/><linearGradient id="SVGID_3_" x1="124.511" x2="124.121" y1="58.179" y2="48.909" gradientTransform="matrix(1 0 0 -1 0 498.119)" gradientUnits="userSpaceOnUse"><stop offset="0" style="stop-color:#a0a0a0"/><stop offset=".13" style="stop-color:#a3a3a3;stop-opacity:.97"/><stop offset=".29" style="stop-color:#adadad;stop-opacity:.87"/><stop offset=".48" style="stop-color:#bcbcbc;stop-opacity:.71"/><stop offset=".67" style="stop-color:#d1d1d1;stop-opacity:.48"/><stop offset=".88" style="stop-color:#ececec;stop-opacity:.2"/><stop offset="1" style="stop-color:#fff;stop-opacity:0"/></linearGradient><path d="M132.5,447.9c-2.2-2.4-6,0.2-10.4-0.8c-3.2-0.8-5.4-1.3-6.2,0c0.3-1.2,0.7-2.8,1.3-4.8l1.9-2l7.6,1.7 l3.5,0.8c0,1.6,0.5,3.1,1.6,4.3C132,447.3,132.2,447.6,132.5,447.9z" class="st11"/><path d="M172.2,457.1c-3.4,1-16.1-1-18.5-2.4c-1.3-0.6-2.1-1.9-1.9-3.4c0-0.8,0.1-1.6,0.3-2.4l0,0 c0.2-1.1,0.4-2.6,0.8-4.3l1.7-2.2l7.8,1.1l3.5,0.5c0.1,1.6,0.8,3,1.9,4.1c0.3,0.3,0.6,0.6,1,1s0.5,0.4,0.8,0.6 c0.6,0.5,1.3,0.9,1.9,1.3c1.1,0.6,2.1,1.2,3,2c0.5,0.4,0.8,1,1,1.6C175.5,455.5,174.5,456.4,172.2,457.1z" class="st9"/><path d="M175.4,454.5c0.2,1-0.8,1.9-3.2,2.6c-3.5,1-16.1-1-18.5-2.4c-1.3-0.5-2.1-1.9-1.9-3.4 c0.6,1.5,1.7,2.4,5.8,3.4c4.9,1.2,13.2,2.7,16.7,0.8C174.7,455.2,175.1,454.9,175.4,454.5z" class="st10"/><path d="M171.4,450.9c0,0.4-0.3,0.8-0.7,1c-1.4,0.6-5.3-0.4-7.6-5.2l-0.7-3.3l3.5,0.5c0.1,1.6,0.8,3.1,1.9,4.2 C168.8,449.1,170,450.1,171.4,450.9z" class="st10"/><linearGradient id="SVGID_4_" x1="160.591" x2="160.231" y1="55.989" y2="47.369" gradientTransform="matrix(1 0 0 -1 0 498.119)" gradientUnits="userSpaceOnUse"><stop offset="0" style="stop-color:#a0a0a0"/><stop offset=".13" style="stop-color:#a3a3a3;stop-opacity:.97"/><stop offset=".29" style="stop-color:#adadad;stop-opacity:.87"/><stop offset=".48" style="stop-color:#bcbcbc;stop-opacity:.71"/><stop offset=".67" style="stop-color:#d1d1d1;stop-opacity:.48"/><stop offset=".88" style="stop-color:#ececec;stop-opacity:.2"/><stop offset="1" style="stop-color:#fff;stop-opacity:0"/></linearGradient><path d="M168.7,449c-2.9-2.1-5.3-1.1-7.6-1c-2.6,0.2-8-2.1-9.1,0.8c0.2-1.1,0.4-2.6,0.8-4.3l1.7-2.2l7.8,1.1l3.5,0.5 c0.1,1.6,0.8,3,1.9,4.1C168,448.3,168.3,448.6,168.7,449z" class="st12"/><path d="M177.1,268.7c-0.4,3.6-1,8.3-1.8,13.2c-1.6,10.1-4.2,21-7.8,24l-15-33.6l5.8-39.3l9-4.7l8.2,11.5 c0.2,2.6,0.4,5.8,0.6,9C176.7,257.2,177.4,266.2,177.1,268.7z" class="st13"/><linearGradient id="SVGID_5_" x1="142.111" x2="195.861" y1="232.07" y2="229.88" gradientTransform="matrix(1 0 0 -1 0 498.119)" gradientUnits="userSpaceOnUse"><stop offset="0" style="stop-color:#a0a0a0"/><stop offset="1" style="stop-color:#fff;stop-opacity:0"/></linearGradient><path d="M176.1,248.8L176.1,248.8c-0.6-2.4-3.9-2.6-4.9,1.4c-0.9,4.2-1.1,8.5-0.6,12.8c0.4,5.7-0.2,25,4.6,18.9 c-1.6,10.1-4.2,21-7.8,24l-15-33.6l5.8-39.3l9.1-4.7l8.2,11.5C175.7,242.4,175.9,245.5,176.1,248.8z" class="st14"/><path d="M177.5,383.6c-0.9,5.9-8.5,60.4-10.2,61.8c-0.6,0.5-2.4,0.6-4.7,0.5c-4.5-0.2-10.7-1.3-11.6-2.2 c-1.4-1.4,2.3-44.6,3.3-53c0.6-4.7,0.6-8.8-1.9-29.4c-0.2-1.3-0.3-2.6-0.4-4c0-0.4-0.1-0.8-0.1-1.2l0,0c-0.9,7.7-1.7,14.1-2,17.4 c-0.8,8.6-8.6,32.3-11.3,43.6s-4.9,26.5-6.6,28s-13.1,0.2-15.6-1.4s-0.2-14.8,2.7-32.1s6.6-28.8,7-36c0.6-10.3-1.6-46.7-2-58.6 c-0.6-14.6-0.5-25.1,2-31.8l41.3-3.3C175.3,299.6,179.3,372.1,177.5,383.6z" class="st15"/><linearGradient id="SVGID_6_" x1="139.585" x2="149.815" y1="232.36" y2="178.62" gradientTransform="matrix(1 0 0 -1 0 498.119)" gradientUnits="userSpaceOnUse"><stop offset="0" style="stop-color:#a0a0a0"/><stop offset="1" style="stop-color:#fff;stop-opacity:0"/></linearGradient><path d="M172.4,302.9c-3.2-11.8-26.3-9.1-34.7-6.6s-12.9,13.4-13.4,25c-0.1-1.6-0.2-3.1-0.2-4.3 c-0.6-14.6-0.5-25.1,2-31.8l41.3-3.3C169.3,286.2,171,293.8,172.4,302.9z" class="st16"/><linearGradient id="SVGID_7_" x1="270.18" x2="117.69" y1="144.861" y2="106.301" gradientTransform="matrix(1 0 0 -1 0 498.119)" gradientUnits="userSpaceOnUse"><stop offset="0" style="stop-color:#a0a0a0"/><stop offset=".13" style="stop-color:#a3a3a3;stop-opacity:.97"/><stop offset=".29" style="stop-color:#adadad;stop-opacity:.87"/><stop offset=".48" style="stop-color:#bcbcbc;stop-opacity:.71"/><stop offset=".67" style="stop-color:#d1d1d1;stop-opacity:.48"/><stop offset=".88" style="stop-color:#ececec;stop-opacity:.2"/><stop offset="1" style="stop-color:#fff;stop-opacity:0"/></linearGradient><path d="M168.3,380.1c-0.8,18.5-14.6,61-5.7,65.6c-4.5-0.2-10.7-1.3-11.6-2.2c-1.4-1.4,2.3-44.6,3.3-53 c0.6-4.7,0.6-8.8-1.9-29.4c-0.2-1.3-0.3-2.6-0.4-4c0-0.4-0.1-0.8-0.1-1.2l0,0c0-0.3,0.1-0.5,0.1-0.8c0.1-0.6,0.1-1.2,0.2-1.9 c0.1-1.3,0.3-2.6,0.5-3.9c0.1-0.7,0.2-1.3,0.3-2c0.2-1.4,0.3-2.7,0.5-4.1s0.3-2.8,0.5-4.2c0.2-2.1,0.5-4.2,0.8-6.3 c0.1-0.7,0.2-1.4,0.3-2.1c0.2-1.5,0.4-3,0.6-4.5c0.2-1.7,0.4-3.3,0.6-4.9s0.4-3.2,0.6-4.7C160.4,329.4,169.4,355.1,168.3,380.1z" class="st17"/><image style="overflow:visible;enable-background:new" width="281" height="493" transform="matrix(0.48 0 0 0.48 79.12 245.52)" xlink:href="F7AF3528947FBDD.png"/><path d="M126.1,239.8c-1.3,9.1-1.8,27.4-4.5,30.1c-0.3,0.3-0.5,0.5-0.8,0.7c-2.7,1.7-8.5,2.9-10.9-0.7 c-2.2-3.3-0.6-14.1,0.5-22.9c0.6-4.8,1.2-8.7,1.3-10L126.1,239.8z" class="st13"/><linearGradient id="SVGID_8_" x1="149.762" x2="103.612" y1="270.906" y2="234.236" gradientTransform="matrix(1 0 0 -1 0 498.119)" gradientUnits="userSpaceOnUse"><stop offset="0" style="stop-color:#a0a0a0"/><stop offset=".13" style="stop-color:#a8a8a8;stop-opacity:.92"/><stop offset=".38" style="stop-color:#bdbdbd;stop-opacity:.7"/><stop offset=".71" style="stop-color:#dedede;stop-opacity:.35"/><stop offset="1" style="stop-color:#fff;stop-opacity:0"/></linearGradient><path d="M126.1,239.8c-1.3,9.1-1.8,27.4-4.5,30.1c-0.3,0.3-0.5,0.5-0.8,0.7l-1-12.6c2.2-0.4,2.6-3.3,2.8-6.8 s0.7-5.5-3.1-6.1s-7.4-1.6-9.3,1.9c0.6-4.8,1.2-8.7,1.3-10L126.1,239.8z" class="st18"/><path d="M138.3,205c5.3-1.1,10.8-0.9,16,0.6l2.8,5.3l-4.6,4.8l-12.9-0.7l-4.7-6.4" class="st19"/><path d="M146.5,223.2c-8.6,0.9-19.4-13.7-16.5-15.2c3.1-1.3,6.3-2.2,9.6-2.6c0-0.3,0.1-0.7,0.1-1.1l0,0 c0.6-4,1.5-8.3,1.5-8.3l9.4,1.1l3.1,0.4c-0.4,3.2-0.6,6.3-1,8.5c3.6,0.9,9.2,3,10.3,4.3C164.6,211.8,155.1,222.3,146.5,223.2z" class="st13"/><linearGradient id="SVGID_9_" x1="147.004" x2="145.874" y1="306.499" y2="291.819" gradientTransform="matrix(1 0 0 -1 0 498.119)" gradientUnits="userSpaceOnUse"><stop offset="0" style="stop-color:#a0a0a0"/><stop offset="1" style="stop-color:#fff;stop-opacity:0"/></linearGradient><path d="M152.4,202c-3.5,1.5-7.3,0.4-8.9-0.1c-1.2-0.4-2.8-0.8-3.7,2.4c0.6-4,1.5-8.3,1.5-8.3l9.4,1.1L152.4,202z" class="st20"/><path d="M163.3,187.3L163.3,187.3c-0.4,0.9-0.8,1.8-1.2,2.6l0,0c-0.8,1.7-1.6,3.3-2.2,4.6c-2.2,4.9-5.5,8.1-10.1,7.7 c-4.2-0.4-7.7-1.2-9.4-5.4c-1.1-2.7-1.4-12.5-0.6-16.8c0.2-0.9,0.4-1.7,0.8-2.5c1.4-3.2,4.1-5.8,6.1-6.1 c2.5-0.5,16.3,2.6,18.4,5.9C166.3,179.1,165,183.2,163.3,187.3z" class="st13"/><linearGradient id="SVGID_10_" x1="172.554" x2="150.054" y1="330.839" y2="314.679" gradientTransform="matrix(1 0 0 -1 0 498.119)" gradientUnits="userSpaceOnUse"><stop offset="0" style="stop-color:#a0a0a0"/><stop offset="1" style="stop-color:#fff;stop-opacity:0"/></linearGradient><path d="M163.3,187.3L163.3,187.3c-0.4,0.9-0.8,1.8-1.2,2.6c0.8-3.2,0.2-5.5-4.9-6.9c-4.5-1.2-7.8-4.7-8.8-4.5 s0,1.5-2.2,4.9l-5.7-5.9c1.4-3.2,4.1-5.8,6.1-6.1c2.5-0.5,16.3,2.6,18.4,5.9C166.3,179.1,165,183.2,163.3,187.3z" class="st21"/><path d="M176.9,172.4c-2.1,8.4-8.1,11.7-15.2,10.7c-5.7-0.8-13.4-6.1-15.1-7.2c0,0,0.4,1.8,0.6,3.4 c0.2,1.9-1,4.2-2.2,6.3l-0.8-0.4c1.6-5.2-1.1-5.4-2.3-4.7s-1.5,2.5-1.5,3.9c0,0.6,0.1,1.3,0.5,1.8c0,0-0.3,5-0.9,5.3 c-0.9,0.5-1.2,0.1-1.6-0.7c-0.6-1.2-2-5.1-1.1-12.8v-0.1c0.1-1.2,0.3-2.4,0.6-3.8c0.4-2.6,1.3-5.1,2.5-7.5 c1.3-2.7,3.5-4.7,6.3-5.7c1.1-1.3,2.6-2,4.2-2.1c3.6-0.3,6.2,0.5,9.6,2.8l0,0c0.7,0.5,1.4,1.1,2.2,1.7 C167.2,167.2,172.1,172.6,176.9,172.4z" class="st22"/><path d="M143.1,181.5c-1.2,0.5-1.9,1.9-1.4,3.1c0.1,0.2,0.2,0.4,0.3,0.6C141.7,183.9,142.1,182.5,143.1,181.5z" class="st23"/><linearGradient id="SVGID_11_" x1="142.607" x2="136.547" y1="326.043" y2="305.953" gradientTransform="matrix(1 0 0 -1 0 498.119)" gradientUnits="userSpaceOnUse"><stop offset="0" style="stop-color:#a0a0a0"/><stop offset="1" style="stop-color:#fff;stop-opacity:0"/></linearGradient><path d="M140.9,186.3c0,0-0.3,5-0.9,5.3c-0.9,0.5-1.2,0.1-1.6-0.7c-0.6-1.2-2-5.1-1.1-12.8c-0.4,4.9,1.4,9.2,3,6.4 C140.3,185.1,140.5,185.8,140.9,186.3z" class="st24"/><linearGradient id="SVGID_12_" x1="154.209" x2="148.609" y1="346.299" y2="327.749" gradientTransform="matrix(1 0 0 -1 0 498.119)" gradientUnits="userSpaceOnUse"><stop offset="0" style="stop-color:#a0a0a0"/><stop offset="1" style="stop-color:#fff;stop-opacity:0"/></linearGradient><path d="M160.5,161.8c-6.3-3.5-11-0.5-9.4,2.2c-3.7-0.8-8.8,0.1-10.7,2.8c1.3-2.7,3.5-4.7,6.3-5.7 c1.1-1.3,2.6-2,4.2-2.1C154.6,158.6,157.2,159.4,160.5,161.8z" class="st25"/><image style="overflow:visible;enable-background:new" width="234" height="220" transform="matrix(0.48 0 0 0.48 100.72 122.64)" xlink:href="F7AF3528947FBDE.png"/><path d="M176.4,243.8c-0.9,0.9-4.5,1.4-7.9,1.4c-2.8,0-5.4-0.3-6.3-0.9s-1.3-4.1-1.2-7.2l-31.8,1.3h-0.9 c0,1-0.1,1.9-0.3,2.8c-0.3,1.4-1.1,1.9-3.4,2l0,0c-0.8,0-1.9,0-3.2,0c-6.7-0.1-11.1-3.2-11.3-4.5c-0.4-3.5-0.1-7.1,0.8-10.5 c1.3-5.5,3.4-12.3,8.1-16.9c2.9-2.9,13.8-4.9,19.3-6.1c8.8,9.1,15.4,5,16,0.6c5.7,1.8,11.1,4.3,16.2,7.4l0,0l1,0.6 c3,1.9,5.2,6.8,5.4,12.2S177.5,242.6,176.4,243.8z" class="st9"/><path d="M176.4,243.8c-0.9,0.9-4.5,1.4-7.9,1.4c-0.8-2.7,0.3-6.7,1-9.7c1.2-4.8,3.4-19.5,1-22.4l1,0.6 c3,1.9,5.2,6.8,5.4,12.2S177.5,242.6,176.4,243.8z" class="st26"/><image style="overflow:visible;enable-background:new" width="291" height="235" transform="matrix(0.48 0 0 0.48 73.84 168.72)" xlink:href="F7AF3528947FBDC.png"/><path d="M171.2,290.8c-1.5,2.7-3.6,0.7-15.2,1c-8.9,0.2-30.2,2.1-31.8,1.4c-1.4-0.6-1.9-4.1-1.9-6.2 c0-3.1,0.9-8.9,0.8-20.7c0-1.1,0-2.2,0-3.4c0.2-9.4,1.2-21.4,2.9-28.3l43.1,0.9c-0.3,4.8-0.4,9.6-0.3,14.2c0,4,0.2,7.8,0.3,11.4 l0,0C169.8,276.3,171.6,290,171.2,290.8z" class="st9"/><path d="M130.1,225.8c0,4.8-0.2,9.2-0.9,12.4c-0.2,1-0.6,2-1.2,2.9c-0.8,1.2-2,1.9-3.4,2l0,0c-0.8,0-1.9,0-3.2,0 c-6.7-0.1-11.1-3.2-11.3-4.5c-0.4-3.5-0.1-7.1,0.8-10.5c1.3-5.5,3.4-12.3,8.1-16.9C125.6,208,130.1,213.7,130.1,225.8z" class="st26"/><linearGradient id="SVGID_13_" x1="100.539" x2="175.319" y1="295.288" y2="186.228" gradientTransform="matrix(1 0 0 -1 0 498.119)" gradientUnits="userSpaceOnUse"><stop offset="0" style="stop-color:#a0a0a0"/><stop offset="1" style="stop-color:#fff;stop-opacity:0"/></linearGradient><path d="M169,261.1c-2.1-3.1-4.6-3.6-7.1-1.8c-2.4,1.8-22,7.9-26,10s-12.1,3.4-13.7,17.7l0,0c0-3.1,0.9-8.9,0.8-20.7 c0-1.1,0-2.2,0-3.4l5.5-3l30.3-6.8l8.7-3.6l1.1,0.1C168.7,253.7,168.9,257.5,169,261.1z" class="st27"/><path d="M155.6,251.3c0.3-0.3,3.6-5.3,5.5-6.1c3.7-1.7,3.4,0,2.4,0.9c-0.3,0.3-2.4,1.2-3.2,3.2l-1.1,2.5" class="st13"/><path d="M175.3,232.6c0.3,0.3,0.5,0.6,0.7,0.9c0.1,0.2-0.4,0.5-0.4,0.5l-0.9-0.2l-0.4-0.7" class="st28"/><path d="M160.8,249.4c0.2,0.5,0.6,1,1.1,1.2l0.2-0.8l-0.6-1" class="st28"/><path d="M174.6,232.4l-7.8-0.5c-0.8,0-1.4,0.4-1.7,1.1l-4.3,15.7c-0.2,0.5,0.1,1.1,0.7,1.3c0.1,0,0.2,0.1,0.3,0 l7.8,0.5c0.8,0,1.5-0.4,1.7-1.1l4.3-15.7c0.2-0.5-0.1-1.1-0.7-1.3C174.8,232.4,174.7,232.3,174.6,232.4z" class="st28"/><path d="M175,232.9l-7.8-0.5c-0.8,0-1.5,0.4-1.7,1.1l-4.3,15.7c-0.2,0.5,0.1,1.1,0.7,1.3c0.1,0,0.2,0.1,0.3,0 l7.8,0.5c0.8,0,1.5-0.4,1.7-1.1l4.3-15.7c0.2-0.5-0.1-1.1-0.7-1.3C175.2,232.9,175.1,232.9,175,232.9z" class="st29"/><path d="M171.8,237.3c0,1.1-0.9,2-2,2c-0.8,0-1.4-0.6-1.4-1.3c0-0.1,0-0.2,0-0.3c0.2-0.8,0.8-1.5,1.7-1.7 c0.7-0.2,1.5,0.3,1.7,1C171.7,237.1,171.8,237.2,171.8,237.3z" class="st30"/><path d="M155.6,251.3c-0.1,0.1-2.7,0.5-8.3,1.6v9.5c0.7,0,10.2-3.9,10.7-4c6.6-1.5,8.8-4.9,10.8-7.7 c1.7-2.5,3.1-3.9,2.3-4.4s-2.2,1.9-3.9,4.1c0.5-0.7,3.1-3.9,3.9-5.2c0.3-0.5,0.2-1.7-1-1.5c-0.8,0.1-1.8,2.2-4.3,5.5 c0,0,2.2-3.3,3.1-4.7s0.8-2.4-0.4-2.4s-4.3,6.1-4.3,6.1c1.4-2.4,3.2-5.4,3.2-6s-0.8-0.9-1.3-0.6c-1.5,0.8-5.3,9.1-5.7,7.2" class="st13"/><path d="M154.7,259.5c-1.3,0.8-15.6,5.8-18.7,6.7c-3.1,0.9-17.1,6.5-22.1,6c-4.6-0.4-5.8-4.9-4.8-8.3 c0.7-2.4,2.6-4.2,5-4.8c2.3-0.7,26-4.9,27.7-5.3c1-0.2,4.2-0.8,7.4-1.4c1.9-0.4,3.4-0.6,4.7-0.9c0.4-0.1,1.4-0.3,1.7-0.4 s-0.2,0.3-0.1,0.9C155.9,254.2,155.7,258.9,154.7,259.5z" class="st13"/><path d="M197.8,349.8h112.3c6.5,0,11.9,5.3,11.9,11.9v1.9c0,6.5-5.3,11.9-11.9,11.9H197.8c-6.5,0-11.9-5.3-11.9-11.9 v-1.9C186,355.1,191.3,349.8,197.8,349.8z" class="st6"/><path d="M196.8,178.1h114.3c8.4,0,15.2,6.8,15.2,15.2v114.3c0,8.4-6.8,15.2-15.2,15.2H196.8 c-8.4,0-15.2-6.8-15.2-15.2V193.3C181.7,184.9,188.4,178.1,196.8,178.1z" class="st6"/><path d="M197.1,182.4h113.7c6.2,0,11.2,5,11.2,11.2v113.7c0,6.2-5,11.2-11.2,11.2H197.1c-6.2,0-11.2-5-11.2-11.2 V193.6C186,187.4,191,182.4,197.1,182.4z" class="st6"/><path d="M306.8,193.1h-27.5v32.1h32.1v-32.1H306.8z M306.8,202.3v18.3h-22.9v-22.9h22.9V202.3z" class="st31"/><polygon points="242.5 202.3 247.1 202.3 247.1 197.7 247.1 193.1 242.5 193.1 242.5 197.7 237.9 197.7 233.4 197.7 233.4 202.3 233.4 206.9 237.9 206.9 237.9 202.3" class="st31"/><polygon points="260.9 202.3 265.5 202.3 265.5 206.9 260.9 206.9 260.9 211.5 265.5 211.5 265.5 216.1 270.1 216.1 274.6 216.1 274.6 211.5 270.1 211.5 270.1 206.9 270.1 202.3 274.6 202.3 274.6 197.7 274.6 193.1 270.1 193.1 265.5 193.1 265.5 197.7 260.9 197.7 256.3 197.7 256.3 202.3 256.3 206.9 260.9 206.9" class="st31"/><polygon points="293 202.3 288.4 202.3 288.4 206.9 288.4 211.5 288.4 216.1 293 216.1 297.6 216.1 302.2 216.1 302.2 211.5 302.2 206.9 302.2 202.3 297.6 202.3" class="st31"/><polygon points="215 216.1 219.6 216.1 219.6 211.5 219.6 206.9 219.6 202.3 215 202.3 210.4 202.3 205.8 202.3 205.8 206.9 205.8 211.5 205.8 216.1 210.4 216.1" class="st31"/><path d="M205.8,225.3h22.9v-32.1h-32.1v32.1H205.8z M201.3,216.1v-18.3h22.9v22.9h-22.9V216.1z" class="st31"/><polygon points="256.3 220.7 256.3 216.1 260.9 216.1 260.9 211.5 256.3 211.5 256.3 206.9 251.7 206.9 251.7 211.5 251.7 216.1 251.7 220.7 251.7 225.2 256.3 225.2" class="st31"/><rect width="4.6" height="4.6" x="260.9" y="220.6" class="st6"/><polygon points="270.1 225.2 270.1 229.8 274.6 229.8 274.6 225.2 274.6 220.7 270.1 220.7" class="st31"/><rect width="4.6" height="4.6" x="256.3" y="225.2" class="st6"/><polygon points="224.2 229.8 224.2 234.4 228.8 234.4 233.4 234.4 233.4 229.8 228.8 229.8" class="st31"/><polygon points="201.2 229.8 196.7 229.8 196.7 234.4 196.7 239 201.2 239 201.2 234.4 205.8 234.4 205.8 229.8" class="st31"/><rect width="4.6" height="4.6" x="237.9" y="234.4" class="st6"/><polygon points="306.8 234.4 306.8 229.8 302.2 229.8 297.6 229.8 297.6 234.4 302.2 234.4 302.2 239 306.8 239" class="st31"/><polygon points="302.2 243.6 302.2 239 297.6 239 293 239 293 243.6 297.6 243.6" class="st31"/><rect width="4.6" height="4.6" x="288.4" y="243.6" class="st6"/><polygon points="306.8 248.2 302.2 248.2 297.6 248.2 297.6 252.8 297.6 257.4 302.2 257.4 302.2 261.9 306.8 261.9 311.3 261.9 311.3 257.4 311.3 252.8 311.3 248.2 311.3 243.6 306.8 243.6" class="st31"/><polygon points="215 248.2 219.6 248.2 219.6 252.8 224.2 252.8 228.8 252.8 228.8 248.2 224.2 248.2 224.2 243.6 228.8 243.6 228.8 239 224.2 239 219.6 239 219.6 234.4 215 234.4 215 229.8 210.4 229.8 210.4 234.4 205.8 234.4 205.8 239 210.4 239 210.4 243.6 205.8 243.6 201.2 243.6 201.2 248.2 205.8 248.2 210.4 248.2 210.4 252.8 215 252.8" class="st31"/><rect width="4.6" height="4.6" x="205.8" y="252.8" class="st6"/><path d="M293,252.8h-4.6v-4.6h-4.6v-4.6h4.6V239h-4.6v-4.6h9.2v-4.6h-13.7v4.6h-4.6v9.2h-4.6v4.6h9.2v4.6h-13.8v4.6 h-4.6v-4.6h-4.6v9.2H270v9.2h-9.2v-4.6h-9.2v9.2h-4.6v-9.2h4.6v-18.4h9.2v4.6h4.6v-9.2h4.6V239h-4.6v-9.2h-4.6v4.6h-4.6v-4.6h-4.6 v-4.6h-4.6v-13.8h-4.6v-4.6h-4.6v4.6h-4.6v18.4h4.6v-13.8h4.6v13.8h4.6v13.8h-13.8v13.8h-13.8v-4.6H215v4.6h-4.6v4.6h4.6v4.6h-4.6 v4.6h18.4v-4.6h-9.2v-4.6h9.2v4.6h4.6v-4.6h4.6v-4.6h4.6v-4.6h-4.6v-4.6h4.6v4.6h4.6v9.2h-9.2v4.6h-4.6v13.8h4.6v9.2h4.6v-4.6h4.6 v-4.6h4.6v4.6h4.6v-9.2h4.6v9.2h9.2v9.2h4.6v-4.6h13.8v4.6h4.6v9.2h9.2v4.6h9.2V294h-4.6v4.6h-4.6V294h-4.6v-4.6H293v-4.6h4.6v4.6 h9.2v-4.6h4.6v-9.2h-9.2v4.6h-4.6v-4.6H293v-9.2h-4.6v-4.6h-4.6v-4.6h4.6v4.6h9.2v-4.6H293V252.8z M238,271.1h4.6v4.6H238V271.1z M265.5,280.3v-4.6h4.6v4.6H265.5z M288.4,275.7v9.2h-13.8v-13.8h13.8V275.7z M279.3,261.9h-4.6v-4.6h4.6V261.9z" class="st31"/><rect width="4.6" height="4.6" x="196.7" y="257.4" class="st6"/><polygon points="205.8 261.9 201.2 261.9 201.2 266.5 196.7 266.5 196.7 271.1 201.2 271.1 205.8 271.1 205.8 266.5 210.4 266.5 210.4 261.9" class="st31"/><rect width="4.6" height="4.6" x="306.8" y="266.5" class="st6"/><path d="M219.6,275.7h-22.9v32.1h32.1v-32.1H219.6z M224.2,284.9v18.4h-22.9v-23h22.9L224.2,284.9z" class="st31"/><rect width="4.6" height="4.6" x="279.2" y="275.7" class="st6"/><polygon points="210.4 284.9 205.8 284.9 205.8 289.5 205.8 294 205.8 298.6 210.4 298.6 215 298.6 219.6 298.6 219.6 294 219.6 289.5 219.6 284.9 215 284.9" class="st31"/><rect width="4.6" height="4.6" x="247.1" y="289.5" class="st6"/><rect width="4.6" height="4.6" x="233.4" y="289.5" class="st6"/><rect width="4.6" height="4.6" x="260.9" y="289.5" class="st6"/><polygon points="279.2 294 274.6 294 274.6 298.6 274.6 303.2 279.2 303.2 279.2 298.6 283.8 298.6 283.8 294" class="st31"/><rect width="4.6" height="4.6" x="265.5" y="294" class="st6"/><polygon points="233.4 298.6 233.4 303.2 233.4 307.8 237.9 307.8 237.9 303.2 242.5 303.2 247.1 303.2 247.1 298.6 247.1 294 242.5 294 237.9 294 237.9 298.6" class="st31"/><rect width="4.6" height="4.6" x="260.9" y="298.6" class="st6"/><rect width="4.6" height="4.6" x="283.8" y="298.6" class="st6"/><rect width="4.6" height="4.6" x="251.7" y="303.2" class="st6"/><rect width="4.6" height="4.6" x="288.4" y="303.2" class="st6"/><polygon points="265.5 303.2 265.5 307.8 270.1 307.8 274.6 307.8 274.6 303.2 270.1 303.2" class="st31"/><path d="M206.1,365.4c0,1.2-0.6,2.3-1.5,3.1c-0.9,0.8-2.1,1.3-3.3,1.3c-1,0-2.1-0.2-3-0.7c-1-0.5-1.7-1.4-2-2.5 c-0.2-0.6,0.2-1.3,0.9-1.5c0,0,0,0,0,0c0.6-0.2,1.3,0.2,1.5,0.9c0.2,0.5,0.5,0.9,1,1.1c0.5,0.2,1.1,0.3,1.7,0.3 c0.6,0,1.2-0.2,1.6-0.6c0.4-0.4,0.7-0.9,0.7-1.5c0-0.4-0.1-0.7-0.4-1c-0.6-0.5-1.4-0.8-2.1-0.7h-0.1c-1.4,0.1-2.8-0.4-3.8-1.4 c-0.7-0.7-1.1-1.7-1-2.7c0-1.2,0.6-2.3,1.5-3.1c0.9-0.8,2.1-1.3,3.3-1.3c1,0,2.1,0.2,3,0.7c1,0.5,1.7,1.4,2,2.5 c0.1,0.3,0,0.6-0.1,0.9c-0.1,0.3-0.4,0.5-0.7,0.5c-0.3,0.1-0.6,0-0.9-0.1c-0.3-0.2-0.5-0.4-0.6-0.7c-0.2-0.5-0.5-0.9-1-1.1 c-0.5-0.2-1.1-0.4-1.7-0.3c-0.6,0-1.2,0.2-1.6,0.6c-0.4,0.4-0.7,0.9-0.7,1.5c0,0.4,0.1,0.7,0.4,1c0.6,0.5,1.4,0.7,2.1,0.7l0,0 c1.4-0.1,2.8,0.5,3.8,1.5C205.8,363.4,206.2,364.4,206.1,365.4z" class="st6"/><path d="M216.4,369.7c-4,0-7.3-3.3-7.3-7.3c0-4,3.3-7.3,7.3-7.3c1.6,0,3.2,0.5,4.5,1.5c0.2,0.2,0.4,0.5,0.5,0.8 c0,0.3,0,0.6-0.2,0.9c-0.2,0.3-0.5,0.4-0.8,0.5c-0.3,0-0.6,0-0.9-0.2c-2.1-1.6-5.2-1.2-6.8,0.9c-1.6,2.1-1.2,5.2,0.9,6.8 c1.9,1.4,4.5,1.3,6.2-0.3c0.2-0.2,0.5-0.3,0.9-0.3c0.3,0,0.6,0.2,0.8,0.4c0.4,0.5,0.4,1.2-0.1,1.7 C220,369.1,218.3,369.8,216.4,369.7z" class="st6"/><path d="M225,369.6c-0.3-0.1-0.5-0.4-0.7-0.6c-0.1-0.3-0.1-0.6,0-0.9l1.3-3.1l0,0l3.8-9.1c0,0,0-0.1,0-0.1v0v-0.1v0 l0,0l0,0v0l0,0c0,0,0,0,0.1,0l0,0h0.1l0,0h0.1h0.1c0,0,0.1,0,0,0h0.1h0.1h0.1h0.5h0.1l0,0c0.1,0,0.2,0.1,0.2,0.1l0,0h0.1l0,0h0.1 l0,0h0.1l0,0c0,0,0,0,0,0l0,0v0v0.1c0,0,0,0,0,0c0,0,0,0.1,0.1,0.1l3.8,9.1l0,0l1.3,3.1c0.1,0.3,0.1,0.6,0,0.9 c-0.1,0.3-0.4,0.5-0.7,0.6c-0.1,0.1-0.3,0.1-0.5,0.1c-0.5,0-0.9-0.3-1.1-0.7l-1-2.4h-5.9l-1,2.4c-0.2,0.5-0.6,0.8-1.1,0.7 C224.7,369.7,224.8,369.7,225,369.6z M232.4,364.2l-2-4.8l-2,4.8H232.4z" class="st6"/><path d="M249.7,369.3L249.7,369.3l-7.4-9.5v8.7c-0.1,0.7-0.6,1.2-1.3,1.1c-0.6-0.1-1-0.5-1.1-1.1v-12.3 c0-0.3,0.1-0.5,0.2-0.7c0.3-0.4,0.8-0.6,1.3-0.5c0.2,0.1,0.5,0.2,0.6,0.4l7.3,9.5v-8.7c0-0.3,0.1-0.6,0.4-0.9 c0.2-0.2,0.5-0.4,0.9-0.4c0.3,0,0.6,0.1,0.9,0.4c0.2,0.2,0.4,0.5,0.4,0.9v12.3v0.1v0c0,0,0,0,0,0.1c0,0,0,0,0,0.1v0c0,0,0,0,0,0.1 c0,0,0,0,0,0c0,0,0,0,0,0.1l0,0v0v0.1l0,0v0.1l0,0v0l0,0l0,0h-0.1l0,0l0,0l-0.2,0.1l0,0l-0.2,0.1l0,0c-0.1,0-0.1,0-0.2,0H251h-0.1 l0,0h-0.1l0,0c0,0-0.1,0-0.1,0l0,0h-0.1l0,0l-0.1,0l0,0l-0.1-0.1l0,0L249.7,369.3z" class="st6"/><path d="M263.8,369.7c-0.7,0-1.2-0.5-1.2-1.2v-12.2c0.1-0.7,0.6-1.2,1.3-1.1c0.6,0.1,1,0.5,1.1,1.1v12.2 C265,369.2,264.4,369.7,263.8,369.7z" class="st6"/><path d="M272.3,357.5h-3c-0.3,0-0.6-0.1-0.9-0.4c-0.5-0.5-0.5-1.2,0-1.7c0.2-0.2,0.5-0.4,0.9-0.4h8.5 c0.3,0,0.6,0.1,0.8,0.4c0.5,0.5,0.5,1.2,0,1.7c-0.2,0.2-0.5,0.4-0.8,0.4h-3v11.1c0,0.3-0.1,0.6-0.4,0.9c-0.2,0.2-0.5,0.3-0.8,0.3 c-0.3,0-0.6-0.1-0.9-0.3c-0.2-0.2-0.4-0.5-0.4-0.9L272.3,357.5z" class="st6"/><path d="M290.4,367.3c0.3,0,0.6,0.1,0.9,0.4c0.5,0.5,0.5,1.2,0,1.7c-0.2,0.2-0.5,0.3-0.8,0.3H283 c-0.7,0-1.2-0.5-1.2-1.2v-12.2c0-0.3,0.1-0.6,0.4-0.9c0.2-0.2,0.5-0.4,0.8-0.4l0,0h7.4c0.3,0,0.6,0.1,0.9,0.4 c0.2,0.2,0.4,0.5,0.4,0.9c0,0.7-0.6,1.2-1.2,1.2l0,0h-6.2v3.7h4.5c0.3,0,0.6,0.1,0.9,0.4c0.2,0.2,0.4,0.5,0.4,0.9 c0,0.7-0.5,1.2-1.2,1.2c0,0,0,0,0,0h-4.5v3.7H290.4z" class="st6"/><path d="M308.6,355.1c0.3,0.1,0.5,0.2,0.6,0.4c0.2,0.2,0.2,0.5,0.2,0.7v12.3c0,0.3-0.1,0.6-0.3,0.9 c-0.2,0.2-0.5,0.4-0.9,0.4c-0.7,0-1.2-0.5-1.2-1.2c0,0,0,0,0,0v-8l-3.8,6.3l0,0v0.1v0c0,0,0,0,0,0l0,0l0,0l-0.1,0l0,0h-0.1l0,0 c0,0,0,0-0.1,0l0,0H303c-0.2,0.1-0.3,0.1-0.5,0.1h-0.1c-0.1,0-0.2,0-0.3-0.1h-0.1H302l0,0h-0.1l0,0l-0.1,0l0,0l-0.1,0l0,0l0,0 c0,0,0,0,0,0c0,0,0,0,0,0c0,0,0,0,0-0.1l0,0l-3.8-6.3v8c0,0.3-0.1,0.6-0.4,0.9c-0.2,0.2-0.5,0.4-0.9,0.4c-0.3,0-0.6-0.1-0.9-0.4 c-0.2-0.2-0.4-0.5-0.4-0.9v-12.2c0-0.3,0.1-0.5,0.2-0.7c0.2-0.2,0.4-0.4,0.6-0.4c0.3-0.1,0.5-0.1,0.8,0c0.2,0.1,0.5,0.3,0.6,0.5 l5,8.3l5-8.3c0.1-0.2,0.3-0.4,0.6-0.5C308.4,355.1,308.5,355.1,308.6,355.1z" class="st6"/><path d="M197.8,349.8h112.3c6.5,0,11.9,5.3,11.9,11.9v1.9c0,6.5-5.3,11.9-11.9,11.9H197.8c-6.5,0-11.9-5.3-11.9-11.9 v-1.9C186,355.1,191.3,349.8,197.8,349.8z" class="st32"/><path d="M196.8,178.1h114.3c8.4,0,15.2,6.8,15.2,15.2v114.3c0,8.4-6.8,15.2-15.2,15.2H196.8 c-8.4,0-15.2-6.8-15.2-15.2V193.3C181.7,184.9,188.4,178.1,196.8,178.1z" class="st32"/><path d="M197.1,182.4h113.7c6.2,0,11.2,5,11.2,11.2v113.7c0,6.2-5,11.2-11.2,11.2H197.1c-6.2,0-11.2-5-11.2-11.2 V193.6C186,187.4,191,182.4,197.1,182.4z" class="st6"/><path d="M306.8,193.1h-27.5v32.1h32.1v-32.1H306.8z M306.8,202.3v18.3h-22.9v-22.9h22.9V202.3z" class="st33"/><polygon points="242.5 202.3 247.1 202.3 247.1 197.7 247.1 193.1 242.5 193.1 242.5 197.7 237.9 197.7 233.4 197.7 233.4 202.3 233.4 206.9 237.9 206.9 237.9 202.3" class="st33"/><polygon points="260.9 202.3 265.5 202.3 265.5 206.9 260.9 206.9 260.9 211.5 265.5 211.5 265.5 216.1 270.1 216.1 274.6 216.1 274.6 211.5 270.1 211.5 270.1 206.9 270.1 202.3 274.6 202.3 274.6 197.7 274.6 193.1 270.1 193.1 265.5 193.1 265.5 197.7 260.9 197.7 256.3 197.7 256.3 202.3 256.3 206.9 260.9 206.9" class="st33"/><polygon points="293 202.3 288.4 202.3 288.4 206.9 288.4 211.5 288.4 216.1 293 216.1 297.6 216.1 302.2 216.1 302.2 211.5 302.2 206.9 302.2 202.3 297.6 202.3" class="st33"/><polygon points="215 216.1 219.6 216.1 219.6 211.5 219.6 206.9 219.6 202.3 215 202.3 210.4 202.3 205.8 202.3 205.8 206.9 205.8 211.5 205.8 216.1 210.4 216.1" class="st33"/><path d="M205.8,225.3h22.9v-32.1h-32.1v32.1H205.8z M201.3,216.1v-18.3h22.9v22.9h-22.9V216.1z" class="st33"/><polygon points="256.3 220.7 256.3 216.1 260.9 216.1 260.9 211.5 256.3 211.5 256.3 206.9 251.7 206.9 251.7 211.5 251.7 216.1 251.7 220.7 251.7 225.2 256.3 225.2" class="st33"/><rect width="4.6" height="4.6" x="260.9" y="220.6" class="st33"/><polygon points="270.1 225.2 270.1 229.8 274.6 229.8 274.6 225.2 274.6 220.7 270.1 220.7" class="st33"/><rect width="4.6" height="4.6" x="256.3" y="225.2" class="st33"/><polygon points="224.2 229.8 224.2 234.4 228.8 234.4 233.4 234.4 233.4 229.8 228.8 229.8" class="st33"/><polygon points="201.2 229.8 196.7 229.8 196.7 234.4 196.7 239 201.2 239 201.2 234.4 205.8 234.4 205.8 229.8" class="st33"/><rect width="4.6" height="4.6" x="237.9" y="234.4" class="st33"/><polygon points="306.8 234.4 306.8 229.8 302.2 229.8 297.6 229.8 297.6 234.4 302.2 234.4 302.2 239 306.8 239" class="st33"/><polygon points="302.2 243.6 302.2 239 297.6 239 293 239 293 243.6 297.6 243.6" class="st33"/><rect width="4.6" height="4.6" x="288.4" y="243.6" class="st33"/><polygon points="306.8 248.2 302.2 248.2 297.6 248.2 297.6 252.8 297.6 257.4 302.2 257.4 302.2 261.9 306.8 261.9 311.3 261.9 311.3 257.4 311.3 252.8 311.3 248.2 311.3 243.6 306.8 243.6" class="st33"/><polygon points="215 248.2 219.6 248.2 219.6 252.8 224.2 252.8 228.8 252.8 228.8 248.2 224.2 248.2 224.2 243.6 228.8 243.6 228.8 239 224.2 239 219.6 239 219.6 234.4 215 234.4 215 229.8 210.4 229.8 210.4 234.4 205.8 234.4 205.8 239 210.4 239 210.4 243.6 205.8 243.6 201.2 243.6 201.2 248.2 205.8 248.2 210.4 248.2 210.4 252.8 215 252.8" class="st33"/><rect width="4.6" height="4.6" x="205.8" y="252.8" class="st33"/><path d="M293,252.8h-4.6v-4.6h-4.6v-4.6h4.6V239h-4.6v-4.6h9.2v-4.6h-13.7v4.6h-4.6v9.2h-4.6v4.6h9.2v4.6h-13.8v4.6 h-4.6v-4.6h-4.6v9.2H270v9.2h-9.2v-4.6h-9.2v9.2h-4.6v-9.2h4.6v-18.4h9.2v4.6h4.6v-9.2h4.6V239h-4.6v-9.2h-4.6v4.6h-4.6v-4.6h-4.6 v-4.6h-4.6v-13.8h-4.6v-4.6h-4.6v4.6h-4.6v18.4h4.6v-13.8h4.6v13.8h4.6v13.8h-13.8v13.8h-13.8v-4.6H215v4.6h-4.6v4.6h4.6v4.6h-4.6 v4.6h18.4v-4.6h-9.2v-4.6h9.2v4.6h4.6v-4.6h4.6v-4.6h4.6v-4.6h-4.6v-4.6h4.6v4.6h4.6v9.2h-9.2v4.6h-4.6v13.8h4.6v9.2h4.6v-4.6h4.6 v-4.6h4.6v4.6h4.6v-9.2h4.6v9.2h9.2v9.2h4.6v-4.6h13.8v4.6h4.6v9.2h9.2v4.6h9.2V294h-4.6v4.6h-4.6V294h-4.6v-4.6H293v-4.6h4.6v4.6 h9.2v-4.6h4.6v-9.2h-9.2v4.6h-4.6v-4.6H293v-9.2h-4.6v-4.6h-4.6v-4.6h4.6v4.6h9.2v-4.6H293V252.8z M238,271.1h4.6v4.6H238V271.1z M265.5,280.3v-4.6h4.6v4.6H265.5z M288.4,275.7v9.2h-13.8v-13.8h13.8V275.7z M279.3,261.9h-4.6v-4.6h4.6V261.9z" class="st33"/><rect width="4.6" height="4.6" x="196.7" y="257.4" class="st33"/><polygon points="205.8 261.9 201.2 261.9 201.2 266.5 196.7 266.5 196.7 271.1 201.2 271.1 205.8 271.1 205.8 266.5 210.4 266.5 210.4 261.9" class="st33"/><rect width="4.6" height="4.6" x="306.8" y="266.5" class="st33"/><path d="M219.6,275.7h-22.9v32.1h32.1v-32.1H219.6z M224.2,284.9v18.4h-22.9v-23h22.9L224.2,284.9z" class="st33"/><rect width="4.6" height="4.6" x="279.2" y="275.7" class="st33"/><polygon points="210.4 284.9 205.8 284.9 205.8 289.5 205.8 294 205.8 298.6 210.4 298.6 215 298.6 219.6 298.6 219.6 294 219.6 289.5 219.6 284.9 215 284.9" class="st33"/><rect width="4.6" height="4.6" x="247.1" y="289.5" class="st33"/><rect width="4.6" height="4.6" x="233.4" y="289.5" class="st33"/><rect width="4.6" height="4.6" x="260.9" y="289.5" class="st33"/><polygon points="279.2 294 274.6 294 274.6 298.6 274.6 303.2 279.2 303.2 279.2 298.6 283.8 298.6 283.8 294" class="st33"/><rect width="4.6" height="4.6" x="265.5" y="294" class="st33"/><polygon points="233.4 298.6 233.4 303.2 233.4 307.8 237.9 307.8 237.9 303.2 242.5 303.2 247.1 303.2 247.1 298.6 247.1 294 242.5 294 237.9 294 237.9 298.6" class="st33"/><rect width="4.6" height="4.6" x="260.9" y="298.6" class="st33"/><rect width="4.6" height="4.6" x="283.8" y="298.6" class="st33"/><rect width="4.6" height="4.6" x="251.7" y="303.2" class="st33"/><rect width="4.6" height="4.6" x="288.4" y="303.2" class="st33"/><polygon points="265.5 303.2 265.5 307.8 270.1 307.8 274.6 307.8 274.6 303.2 270.1 303.2" class="st33"/><path d="M206.1,365.4c0,1.2-0.6,2.3-1.5,3.1c-0.9,0.8-2.1,1.3-3.3,1.3c-1,0-2.1-0.2-3-0.7c-1-0.5-1.7-1.4-2-2.5 c-0.2-0.6,0.2-1.3,0.9-1.5c0,0,0,0,0,0c0.6-0.2,1.3,0.2,1.5,0.9c0.2,0.5,0.5,0.9,1,1.1c0.5,0.2,1.1,0.3,1.7,0.3 c0.6,0,1.2-0.2,1.6-0.6c0.4-0.4,0.7-0.9,0.7-1.5c0-0.4-0.1-0.7-0.4-1c-0.6-0.5-1.4-0.8-2.1-0.7h-0.1c-1.4,0.1-2.8-0.4-3.8-1.4 c-0.7-0.7-1.1-1.7-1-2.7c0-1.2,0.6-2.3,1.5-3.1c0.9-0.8,2.1-1.3,3.3-1.3c1,0,2.1,0.2,3,0.7c1,0.5,1.7,1.4,2,2.5 c0.1,0.3,0,0.6-0.1,0.9c-0.1,0.3-0.4,0.5-0.7,0.5c-0.3,0.1-0.6,0-0.9-0.1c-0.3-0.2-0.5-0.4-0.6-0.7c-0.2-0.5-0.5-0.9-1-1.1 c-0.5-0.2-1.1-0.4-1.7-0.3c-0.6,0-1.2,0.2-1.6,0.6c-0.4,0.4-0.7,0.9-0.7,1.5c0,0.4,0.1,0.7,0.4,1c0.6,0.5,1.4,0.7,2.1,0.7l0,0 c1.4-0.1,2.8,0.5,3.8,1.5C205.8,363.4,206.2,364.4,206.1,365.4z" class="st6"/><path d="M216.4,369.7c-4,0-7.3-3.3-7.3-7.3c0-4,3.3-7.3,7.3-7.3c1.6,0,3.2,0.5,4.5,1.5c0.2,0.2,0.4,0.5,0.5,0.8 c0,0.3,0,0.6-0.2,0.9c-0.2,0.3-0.5,0.4-0.8,0.5c-0.3,0-0.6,0-0.9-0.2c-2.1-1.6-5.2-1.2-6.8,0.9c-1.6,2.1-1.2,5.2,0.9,6.8 c1.9,1.4,4.5,1.3,6.2-0.3c0.2-0.2,0.5-0.3,0.9-0.3c0.3,0,0.6,0.2,0.8,0.4c0.4,0.5,0.4,1.2-0.1,1.7 C220,369.1,218.3,369.8,216.4,369.7z" class="st6"/><path d="M225,369.6c-0.3-0.1-0.5-0.4-0.7-0.6c-0.1-0.3-0.1-0.6,0-0.9l1.3-3.1l0,0l3.8-9.1c0,0,0-0.1,0-0.1v0v-0.1v0 l0,0l0,0v0l0,0c0,0,0,0,0.1,0l0,0h0.1l0,0h0.1h0.1c0,0,0.1,0,0,0h0.1h0.1h0.1h0.5h0.1l0,0c0.1,0,0.2,0.1,0.2,0.1l0,0h0.1l0,0h0.1 l0,0h0.1l0,0c0,0,0,0,0,0l0,0v0v0.1c0,0,0,0,0,0c0,0,0,0.1,0.1,0.1l3.8,9.1l0,0l1.3,3.1c0.1,0.3,0.1,0.6,0,0.9 c-0.1,0.3-0.4,0.5-0.7,0.6c-0.1,0.1-0.3,0.1-0.5,0.1c-0.5,0-0.9-0.3-1.1-0.7l-1-2.4h-5.9l-1,2.4c-0.2,0.5-0.6,0.8-1.1,0.7 C224.7,369.7,224.8,369.7,225,369.6z M232.4,364.2l-2-4.8l-2,4.8H232.4z" class="st6"/><path d="M249.7,369.3L249.7,369.3l-7.4-9.5v8.7c-0.1,0.7-0.6,1.2-1.3,1.1c-0.6-0.1-1-0.5-1.1-1.1v-12.3 c0-0.3,0.1-0.5,0.2-0.7c0.3-0.4,0.8-0.6,1.3-0.5c0.2,0.1,0.5,0.2,0.6,0.4l7.3,9.5v-8.7c0-0.3,0.1-0.6,0.4-0.9 c0.2-0.2,0.5-0.4,0.9-0.4c0.3,0,0.6,0.1,0.9,0.4c0.2,0.2,0.4,0.5,0.4,0.9v12.3v0.1v0c0,0,0,0,0,0.1c0,0,0,0,0,0.1v0c0,0,0,0,0,0.1 c0,0,0,0,0,0c0,0,0,0,0,0.1l0,0v0v0.1l0,0v0.1l0,0v0l0,0l0,0h-0.1l0,0l0,0l-0.2,0.1l0,0l-0.2,0.1l0,0c-0.1,0-0.1,0-0.2,0H251h-0.1 l0,0h-0.1l0,0c0,0-0.1,0-0.1,0l0,0h-0.1l0,0l-0.1,0l0,0l-0.1-0.1l0,0L249.7,369.3z" class="st6"/><path d="M263.8,369.7c-0.7,0-1.2-0.5-1.2-1.2v-12.2c0.1-0.7,0.6-1.2,1.3-1.1c0.6,0.1,1,0.5,1.1,1.1v12.2 C265,369.2,264.4,369.7,263.8,369.7z" class="st6"/><path d="M272.3,357.5h-3c-0.3,0-0.6-0.1-0.9-0.4c-0.5-0.5-0.5-1.2,0-1.7c0.2-0.2,0.5-0.4,0.9-0.4h8.5 c0.3,0,0.6,0.1,0.8,0.4c0.5,0.5,0.5,1.2,0,1.7c-0.2,0.2-0.5,0.4-0.8,0.4h-3v11.1c0,0.3-0.1,0.6-0.4,0.9c-0.2,0.2-0.5,0.3-0.8,0.3 c-0.3,0-0.6-0.1-0.9-0.3c-0.2-0.2-0.4-0.5-0.4-0.9L272.3,357.5z" class="st6"/><path d="M290.4,367.3c0.3,0,0.6,0.1,0.9,0.4c0.5,0.5,0.5,1.2,0,1.7c-0.2,0.2-0.5,0.3-0.8,0.3H283 c-0.7,0-1.2-0.5-1.2-1.2v-12.2c0-0.3,0.1-0.6,0.4-0.9c0.2-0.2,0.5-0.4,0.8-0.4l0,0h7.4c0.3,0,0.6,0.1,0.9,0.4 c0.2,0.2,0.4,0.5,0.4,0.9c0,0.7-0.6,1.2-1.2,1.2l0,0h-6.2v3.7h4.5c0.3,0,0.6,0.1,0.9,0.4c0.2,0.2,0.4,0.5,0.4,0.9 c0,0.7-0.5,1.2-1.2,1.2c0,0,0,0,0,0h-4.5v3.7H290.4z" class="st6"/><path d="M308.6,355.1c0.3,0.1,0.5,0.2,0.6,0.4c0.2,0.2,0.2,0.5,0.2,0.7v12.3c0,0.3-0.1,0.6-0.3,0.9 c-0.2,0.2-0.5,0.4-0.9,0.4c-0.7,0-1.2-0.5-1.2-1.2c0,0,0,0,0,0v-8l-3.8,6.3l0,0v0.1v0c0,0,0,0,0,0l0,0l0,0l-0.1,0l0,0h-0.1l0,0 c0,0,0,0-0.1,0l0,0H303c-0.2,0.1-0.3,0.1-0.5,0.1h-0.1c-0.1,0-0.2,0-0.3-0.1h-0.1H302l0,0h-0.1l0,0l-0.1,0l0,0l-0.1,0l0,0l0,0 c0,0,0,0,0,0c0,0,0,0,0,0c0,0,0,0,0-0.1l0,0l-3.8-6.3v8c0,0.3-0.1,0.6-0.4,0.9c-0.2,0.2-0.5,0.4-0.9,0.4c-0.3,0-0.6-0.1-0.9-0.4 c-0.2-0.2-0.4-0.5-0.4-0.9v-12.2c0-0.3,0.1-0.5,0.2-0.7c0.2-0.2,0.4-0.4,0.6-0.4c0.3-0.1,0.5-0.1,0.8,0c0.2,0.1,0.5,0.3,0.6,0.5 l5,8.3l5-8.3c0.1-0.2,0.3-0.4,0.6-0.5C308.4,355.1,308.5,355.1,308.6,355.1z" class="st6"/><linearGradient id="SVGID_14_" x1="151.75" x2="114.53" y1="198.977" y2="189.567" gradientTransform="matrix(1 0 0 -1 0 498.119)" gradientUnits="userSpaceOnUse"><stop offset="0" style="stop-color:#a0a0a0"/><stop offset=".13" style="stop-color:#a3a3a3;stop-opacity:.97"/><stop offset=".29" style="stop-color:#adadad;stop-opacity:.87"/><stop offset=".48" style="stop-color:#bcbcbc;stop-opacity:.71"/><stop offset=".67" style="stop-color:#d1d1d1;stop-opacity:.48"/><stop offset=".88" style="stop-color:#ececec;stop-opacity:.2"/><stop offset="1" style="stop-color:#fff;stop-opacity:0"/></linearGradient><path d="M127.1,301.4c0,0-1.4,7.8-7,9.6C120.1,311,127.1,311,127.1,301.4z" class="st34"/><path d="M393.6,261.8c0,3.3-2.7,6.1-6.1,6.1s-6.1-2.7-6.1-6.1c0-3.3,2.7-6.1,6.1-6.1l0,0 C390.9,255.7,393.6,258.4,393.6,261.8z" class="st6"/><circle cx="347.7" cy="115.6" r="9.2" class="st35"/><circle cx="174.3" cy="420" r="7.4" class="st35"/><circle cx="368.6" cy="409" r="3.7" class="st36"/><path d="M90.5,398.5c0,1.7-1.3,3-3,3s-3-1.3-3-3s1.3-3,3-3S90.5,396.8,90.5,398.5z" class="st37"/><circle cx="393.6" cy="241.4" r="3" class="st37"/><circle cx="115.3" cy="158.9" r="6.5" class="st35"/><circle cx="393.6" cy="374.1" r="6.5" class="st37"/><image style="overflow:visible;opacity:.1;enable-background:new" width="120" height="120" transform="matrix(0.48 0 0 0.48 347.8 178.2)" xlink:href="F7AF3528947FBDB.png"/><circle cx="376.5" cy="207.1" r="12.4" class="st6"/><polyline points="371.7 207.1 374.9 210.3 382.1 203" class="st38"/><image style="overflow:visible;opacity:.1;enable-background:new" width="106" height="106" transform="matrix(0.48 0 0 0.48 374.68 146.04)" xlink:href="F7AF3528947FBD5.png"/><ellipse cx="400.1" cy="171.2" class="st6" rx="9" ry="9" transform="matrix(0.2289 -0.9735 0.9735 0.2289 141.8456 521.5214)"/><line x1="398.2" x2="402" y1="173.1" y2="169.3" class="st39"/><line x1="398.2" x2="402" y1="169.3" y2="173.1" class="st39"/></g></g></svg>